# xmcd
#
# Track frame offsets:
#	182
#	13592
#	24907
#	46005
#	59670
#	73400
#	84982
#	97632
#	118187
#	134730
#
# Disc length: 2035
#
# Revision: 3
# Processed by: cddbd v1.5.1PL0 Copyright (c) Steve Scherf et al.
# Submitted via: CDex 1.40Beta1
# Normalized: r2:TDELIM( - )
#
DISCID=8107f10a
DTITLE=Various Artist - Country Juke Box - Country Juke Box
DYEAR=1993
DGENRE=Country
TTITLE0=Hank Williams Jr. - All My Rowdy Friends Are Coming Over Tonight
TTITLE1=Highway 101 - Cry Cry Cry
TTITLE2=Gary Morris - The Wind Beneath My Wings
TTITLE3=Emmylou Harris - Two More Bottles Of Wine
TTITLE4=John Anderson - Swingin'
TTITLE5=Conway Twitty - Don't Call Him A Cowboy
TTITLE6=Holly Dunn - You Really Had Me Going
TTITLE7=Rodney Crowell - Shame On The Moon
TTITLE8=Pam Tillis - Five Minutes
TTITLE9=Travis Tritt - If I were A Drinker
EXTD=YEAR: 1993 ID3G:   2
EXTT0=Hank Williams Jr.
EXTT1=Highway 101
EXTT2=Gary Morris
EXTT3=Emmylou Harris
EXTT4=John Anderson
EXTT5=Conway Twitty
EXTT6=Holly Dunn
EXTT7=Rodney Crowell
EXTT8=Pam Tillis
EXTT9=Travis Tritt
PLAYORDER=
